<svg width="42" height="42" viewBox="0 0 42 42" fill="none" xmlns="http://www.w3.org/2000/svg">
    <path d="M14.2595 13.6805H6.53064C6.30407 13.6805 6.12048 13.497 6.12048 13.2704C6.12048 13.0438 6.30407 12.8602 6.53064 12.8602H14.2593C14.4859 12.8602 14.6695 13.0438 14.6695 13.2704C14.6695 13.497 14.4859 13.6805 14.2595 13.6805Z" fill="#139CA4"/>
    <path d="M14.2595 12.2668H6.53064C6.30407 12.2668 6.12048 12.0832 6.12048 11.8567C6.12048 11.6301 6.30407 11.4465 6.53064 11.4465H14.2593C14.4859 11.4465 14.6695 11.6301 14.6695 11.8567C14.6695 12.0832 14.4859 12.2668 14.2595 12.2668Z" fill="#3FC928"/>
    <path d="M9.73218 34.1541C9.66754 34.1541 9.6029 34.1388 9.54351 34.1081C9.4075 34.0376 9.32202 33.8971 9.32202 33.7439V30.8612C9.32202 30.7079 9.4075 30.5675 9.54351 30.4969C9.67951 30.4266 9.84341 30.4377 9.96876 30.526L12.0108 31.9673C12.1198 32.0442 12.1846 32.1691 12.1846 32.3025C12.1846 32.4358 12.1198 32.5607 12.011 32.6375L9.96892 34.0789C9.89821 34.1286 9.81536 34.1541 9.73218 34.1541ZM10.1423 31.6526V32.9523L11.0631 32.3025L10.1423 31.6526Z" fill="#3FC928"/>
    <path d="M27.644 32.9359C26.8163 32.9359 26.143 32.2626 26.143 31.4349C26.143 30.6072 26.8163 29.9339 27.644 29.9339C28.4717 29.9339 29.145 30.6072 29.145 31.4349C29.145 32.2626 28.4717 32.9359 27.644 32.9359ZM27.644 30.754C27.2686 30.754 26.9633 31.0594 26.9633 31.4347C26.9633 31.8101 27.2686 32.1154 27.644 32.1154C28.0194 32.1154 28.3247 31.8101 28.3247 31.4347C28.3247 31.0594 28.0194 30.754 27.644 30.754Z" fill="#3FC928"/>
    <path d="M34.3091 32.9359C33.4823 32.9359 32.8097 32.2633 32.8097 31.4367C32.8097 30.61 33.4823 29.9373 34.3091 29.9373C35.1358 29.9373 35.8083 30.61 35.8083 31.4367C35.8083 32.2633 35.1356 32.9359 34.3091 32.9359ZM34.3091 30.7578C33.9347 30.7578 33.63 31.0623 33.63 31.4369C33.63 31.8111 33.9345 32.1158 34.3091 32.1158C34.6834 32.1158 34.9879 31.8113 34.9879 31.4369C34.9879 31.0623 34.6833 30.7578 34.3091 30.7578Z" fill="#3FC928"/>
    <path d="M31.3935 31.7108H30.5614C30.3348 31.7108 30.1512 31.5273 30.1512 31.3007C30.1512 31.0741 30.3348 30.8905 30.5614 30.8905H31.3935C31.6201 30.8905 31.8037 31.0741 31.8037 31.3007C31.8037 31.5273 31.6199 31.7108 31.3935 31.7108Z" fill="#139CA4"/>
    <path d="M5.93262 10.3945V15.1138C5.93262 15.3404 6.1162 15.5239 6.34277 15.5239H14.4473C14.6739 15.5239 14.8575 15.3404 14.8575 15.1138V10.4552C15.6758 10.0318 16.2082 9.17555 16.2082 8.24203C16.2082 6.86768 15.0901 5.7496 13.7156 5.7496C13.3309 5.7496 12.9602 5.83606 12.6223 6.00258C12.1877 5.22903 11.3678 4.73651 10.4512 4.73651C9.53461 4.73651 8.71495 5.22903 8.28019 6.00258C7.94206 5.83606 7.5716 5.7496 7.18688 5.7496C5.81252 5.7496 4.69427 6.86768 4.69427 8.24203C4.69444 9.13355 5.17252 9.9514 5.93262 10.3945ZM7.18704 6.56975C7.56143 6.56975 7.9163 6.6923 8.21342 6.92412C8.3194 7.00697 8.45902 7.03207 8.58731 6.99253C8.71561 6.95267 8.81635 6.85243 8.85687 6.72446C9.0777 6.02588 9.71836 5.55666 10.4514 5.55666C11.1844 5.55666 11.8251 6.02588 12.0459 6.72446C12.0864 6.85243 12.1872 6.95267 12.3155 6.99253C12.4436 7.03191 12.5835 7.00681 12.6894 6.92412C12.9865 6.6923 13.3414 6.56975 13.7157 6.56975C14.6379 6.56975 15.388 7.31984 15.388 8.24187C15.388 8.93323 14.9521 9.56159 14.3033 9.80555C14.1433 9.8656 14.0373 10.0187 14.0373 10.1895V14.7036H6.75293V10.1445C6.75293 9.98241 6.65745 9.83557 6.50946 9.76978C5.90522 9.50105 5.51475 8.9014 5.51475 8.24187C5.51475 7.31984 6.26501 6.56975 7.18704 6.56975Z" fill="black"/>
    <path d="M24.496 24.4014L24.1208 23.3271C24.2968 23.0918 24.4448 22.8387 24.5629 22.5709L25.6818 22.369C26.0808 22.2968 26.3716 21.9501 26.3734 21.545L26.3781 20.5036C26.3799 20.0978 26.0922 19.7486 25.6938 19.6732L24.5769 19.4611C24.461 19.1921 24.3154 18.9378 24.1416 18.7008L24.5263 17.6302C24.6635 17.2486 24.5088 16.8233 24.1587 16.6192L23.2591 16.0944C22.9087 15.8896 22.4624 15.9644 22.1978 16.2719L21.4553 17.1337C21.1647 17.0994 20.8696 17.0996 20.5797 17.1298L19.8448 16.2614C19.5831 15.952 19.1377 15.8734 18.7853 16.0742L17.8808 16.591C17.5289 16.7923 17.3704 17.2161 17.5041 17.5987L17.8794 18.673C17.7033 18.9082 17.5553 19.1614 17.4372 19.4291L16.3183 19.6311C15.9193 19.7033 15.6286 20.0499 15.6268 20.455L15.622 21.4965C15.6202 21.9022 15.908 22.2515 16.3063 22.3268L17.4233 22.5389C17.5391 22.808 17.6848 23.0623 17.8585 23.2992L17.4738 24.3699C17.3366 24.7515 17.4913 25.1767 17.8415 25.3808L18.7412 25.9058C19.0914 26.1094 19.5375 26.0349 19.8022 25.7281L20.5447 24.8663C20.8358 24.9008 21.1293 24.9001 21.4203 24.8703L22.1551 25.7386C22.4181 26.05 22.8662 26.1255 23.2147 25.9258L24.1191 25.409C24.4711 25.2077 24.6295 24.784 24.496 24.4014ZM23.8829 22.0653C23.759 22.4005 23.5784 22.7096 23.3459 22.9839C23.2521 23.0948 23.2237 23.247 23.2716 23.3842L23.7213 24.6719C23.7247 24.6814 23.7206 24.6919 23.7119 24.6968L22.8078 25.2135C22.7989 25.2184 22.7876 25.2164 22.7814 25.209L21.9009 24.1682C21.8223 24.0752 21.7073 24.0229 21.5877 24.0229C21.2138 24.0783 20.828 24.0964 20.4533 24.024C20.3108 23.9986 20.1649 24.0501 20.0702 24.16L19.1804 25.1928C19.1738 25.2003 19.1628 25.2023 19.1541 25.1971L18.2544 24.6721C18.2457 24.6671 18.2419 24.6566 18.2454 24.6473L18.7066 23.3638C18.7558 23.227 18.7289 23.0744 18.636 22.9629C18.4062 22.6863 18.2281 22.3757 18.1072 22.0394C18.0582 21.9027 17.9404 21.8023 17.7978 21.7752L16.4587 21.5209C16.4489 21.5189 16.4418 21.5104 16.442 21.5004L16.4468 20.4588C16.4468 20.4486 16.454 20.4401 16.4638 20.4383L17.8047 20.1961C17.9476 20.1704 18.0662 20.0709 18.1166 19.9346C18.2405 19.5994 18.4211 19.2903 18.6536 19.016C18.7474 18.9051 18.7758 18.7529 18.7279 18.6157L18.2782 17.328C18.2747 17.3185 18.2788 17.308 18.2875 17.303L19.1917 16.7864C19.2002 16.7812 19.2115 16.7833 19.2181 16.7908L20.0986 17.8316C20.3311 18.1064 20.7119 17.8905 21.0138 17.9275C21.317 17.8935 21.694 18.1122 21.9292 17.8398L22.8191 16.8071C22.8257 16.7997 22.8368 16.7976 22.8454 16.8028L23.7451 17.3278C23.7538 17.3327 23.7575 17.3432 23.7541 17.3526L23.2929 18.636C23.2437 18.7729 23.2706 18.9255 23.3635 19.037C23.5933 19.3136 23.7713 19.6242 23.8922 19.9605C23.9413 20.0972 24.0591 20.1976 24.2017 20.2247L25.5407 20.479C25.5506 20.4809 25.5576 20.4895 25.5575 20.4995L25.5527 21.5411C25.5527 21.5513 25.5455 21.5598 25.5357 21.5616L24.1948 21.8038C24.0519 21.8297 23.9333 21.9289 23.8829 22.0653Z" fill="black"/>
    <path d="M21.0107 18.6011H20.9997C19.6819 18.6011 18.607 19.6701 18.6009 20.9894C18.598 21.63 18.8449 22.2338 19.2961 22.6887C19.7472 23.1438 20.3485 23.3962 20.9892 23.3989H21.0002C22.3179 23.3989 23.3929 22.3299 23.3989 21.0109C23.4019 20.3702 23.155 19.7663 22.7038 19.3113C22.2528 18.8562 21.6515 18.6041 21.0107 18.6011ZM21.0002 22.5786H20.9929C20.5713 22.5768 20.1756 22.411 19.8788 22.1112C19.5818 21.8118 19.4196 21.4146 19.4214 20.993C19.4253 20.1248 20.1326 19.4214 21 19.4214H21.0072C21.4289 19.4232 21.8246 19.5891 22.1214 19.8888C22.4183 20.1882 22.5806 20.5854 22.5788 21.0071C22.5748 21.8753 21.8674 22.5786 21.0002 22.5786Z" fill="black"/>
    <path d="M21 15.0157C21.2266 15.0157 21.4102 14.8321 21.4102 14.6055V3.4473C21.4102 3.22073 21.2266 3.03714 21 3.03714C20.7734 3.03714 20.5898 3.22073 20.5898 3.4473V14.6057C20.5898 14.8321 20.7734 15.0157 21 15.0157Z" fill="black"/>
    <path d="M21 26.9844C20.7734 26.9844 20.5898 27.168 20.5898 27.3945V38.5529C20.5898 38.7795 20.7734 38.9631 21 38.9631C21.2266 38.9631 21.4102 38.7795 21.4102 38.5529V27.3945C21.4102 27.168 21.2266 26.9844 21 26.9844Z" fill="black"/>
    <path d="M38.5527 20.5899H27.8867C27.6601 20.5899 27.4765 20.7735 27.4765 21C27.4765 21.2266 27.6601 21.4102 27.8867 21.4102H38.5527C38.7793 21.4102 38.9628 21.2266 38.9628 21C38.9628 20.7735 38.7793 20.5899 38.5527 20.5899Z" fill="black"/>
    <path d="M14.5235 21C14.5235 20.7735 14.3399 20.5899 14.1133 20.5899H3.44727C3.2207 20.5899 3.03711 20.7735 3.03711 21C3.03711 21.2266 3.2207 21.4102 3.44727 21.4102H14.1133C14.3399 21.4102 14.5235 21.2266 14.5235 21Z" fill="black"/>
    <path d="M17.2134 26.8913H4.12878C3.90221 26.8913 3.71863 27.0749 3.71863 27.3015C3.71863 27.5281 3.90221 27.7116 4.12878 27.7116H17.2134C17.44 27.7116 17.6236 27.5281 17.6236 27.3015C17.6236 27.0749 17.44 26.8913 17.2134 26.8913Z" fill="black"/>
    <path d="M17.2134 36.8844H4.26544C4.03887 36.8844 3.85529 37.068 3.85529 37.2946C3.85529 37.5211 4.03887 37.7047 4.26544 37.7047H17.2134C17.44 37.7047 17.6236 37.5211 17.6236 37.2946C17.6236 37.068 17.44 36.8844 17.2134 36.8844Z" fill="black"/>
    <path d="M14.112 35.5489C14.3386 35.5489 14.5221 35.3653 14.5221 35.1388V29.4573C14.5221 29.2307 14.3386 29.0471 14.112 29.0471H7.23022C7.00365 29.0471 6.82007 29.2307 6.82007 29.4573V35.1388C6.82007 35.3653 7.00365 35.5489 7.23022 35.5489H14.112ZM7.64038 29.8674H13.7018V34.7286H7.64038V29.8674Z" fill="black"/>
    <path d="M5.53283 35.5489C5.7594 35.5489 5.94299 35.3653 5.94299 35.1388V29.4573C5.94299 29.2307 5.7594 29.0471 5.53283 29.0471H4.12878C3.90221 29.0471 3.71863 29.2307 3.71863 29.4573C3.71863 29.6838 3.90221 29.8674 4.12878 29.8674H5.12267V34.7286H4.12878C3.90221 34.7286 3.71863 34.9122 3.71863 35.1388C3.71863 35.3653 3.90221 35.5489 4.12878 35.5489H5.53283Z" fill="black"/>
    <path d="M17.2134 29.8674C17.44 29.8674 17.6236 29.6838 17.6236 29.4573C17.6236 29.2307 17.44 29.0471 17.2134 29.0471H15.8094C15.5828 29.0471 15.3992 29.2307 15.3992 29.4573V35.1388C15.3992 35.3653 15.5828 35.5489 15.8094 35.5489H17.2134C17.44 35.5489 17.6236 35.3653 17.6236 35.1388C17.6236 34.9122 17.44 34.7286 17.2134 34.7286H16.2195V29.8674H17.2134Z" fill="black"/>
    <path d="M37.3848 31.4242C37.3862 31.3855 37.387 31.3464 37.387 31.3076C37.387 29.6244 36.0178 28.2552 34.3348 28.2552C33.6308 28.2552 32.9539 28.4965 32.4109 28.9378H31.3878V27.4201C31.3878 27.1935 31.2042 27.0099 30.9776 27.0099C30.751 27.0099 30.5675 27.1935 30.5675 27.4201V28.9378H29.5444C29.0013 28.4965 28.3244 28.2552 27.6204 28.2552C25.9373 28.2552 24.568 29.6246 24.568 31.3076C24.568 31.3466 24.5687 31.3858 24.5703 31.4247L23.9753 35.4725C23.843 36.3714 24.3639 37.2571 25.2139 37.5787C25.4413 37.6645 25.6756 37.7058 25.9068 37.7058C26.5386 37.7058 27.1461 37.3971 27.5179 36.8466L29.1977 34.3599H32.7575L34.4374 36.8466C34.9453 37.5985 35.8928 37.8993 36.7413 37.5787C37.5913 37.2571 38.1122 36.3715 37.98 35.4725L37.3848 31.4242ZM36.4511 36.8112C35.9599 36.9974 35.4111 36.8227 35.1171 36.3874L33.3152 33.7201C33.2389 33.6072 33.1116 33.5395 32.9752 33.5395H28.9797C28.8433 33.5395 28.716 33.6071 28.6397 33.7201L26.8378 36.3874C26.5437 36.8227 25.995 36.9974 25.5038 36.8112C25.0116 36.6252 24.7101 36.1123 24.7866 35.5916L25.3824 31.5389C25.3903 31.5031 25.3934 31.466 25.3915 31.4285C25.3892 31.3884 25.3882 31.3481 25.3882 31.3076C25.3882 30.0768 26.3894 29.0755 27.6202 29.0755C28.1748 29.0755 28.7065 29.2802 29.1173 29.6522C29.1928 29.7204 29.2909 29.7582 29.3926 29.7582H32.5623C32.664 29.7582 32.7621 29.7204 32.8376 29.6522C33.2484 29.2802 33.7801 29.0755 34.3347 29.0755C35.5653 29.0755 36.5666 30.0769 36.5666 31.3076C36.5666 31.3481 36.5656 31.3884 36.5633 31.4285C36.5613 31.466 36.5644 31.503 36.5723 31.5386L37.1682 35.5916C37.2448 36.1123 36.9433 36.6252 36.4511 36.8112Z" fill="black"/>
    <path d="M25.1042 14.9082C27.1374 14.9054 29.1173 15.3418 30.9707 16.1759C31.076 16.2186 31.1906 16.2191 31.2957 16.1759C33.1493 15.3418 35.129 14.9056 37.1623 14.9084C37.3888 14.9084 37.5724 14.7248 37.5724 14.4982V6.09624C37.5762 5.87476 37.3808 5.6787 37.1577 5.68608C35.0729 5.68855 33.0404 6.11183 31.1331 6.94986C29.2412 6.1174 27.1753 5.6874 25.1086 5.68608C24.8891 5.68001 24.6883 5.87377 24.6938 6.09624V14.498C24.694 14.7246 24.8776 14.9082 25.1042 14.9082ZM36.7523 14.0933C34.9574 14.1415 33.2088 14.5062 31.5434 15.1799V7.66517C33.2 6.95084 34.9504 6.56365 36.7523 6.51329V14.0933ZM25.5143 6.51312C27.3031 6.56333 29.08 6.95609 30.7231 7.66501V15.1801C29.0577 14.5064 27.3092 14.1415 25.5143 14.0933V6.51312Z" fill="black"/>
    <path d="M29.596 13.2671C29.5404 13.2671 29.4837 13.2556 29.4295 13.2315C28.9641 13.0244 28.4804 12.8584 27.992 12.738C27.5415 12.6267 27.0793 12.5529 26.6186 12.5183C26.3927 12.5012 26.2234 12.3044 26.2403 12.0784C26.2574 11.8524 26.4565 11.6824 26.6801 11.7001C27.1861 11.7382 27.6936 11.8194 28.1884 11.9413C28.7237 12.0734 29.2535 12.2551 29.7629 12.4819C29.9699 12.5741 30.063 12.8164 29.9709 13.0234C29.903 13.1764 29.753 13.2671 29.596 13.2671Z" fill="#3FC928"/>
    <path d="M29.596 11.3878C29.5404 11.3878 29.4837 11.3763 29.4295 11.3522C28.9639 11.1449 28.4802 10.9791 27.9922 10.8588C27.5407 10.7474 27.0785 10.6736 26.6186 10.6391C26.3929 10.6221 26.2234 10.4254 26.2403 10.1995C26.2574 9.97354 26.4523 9.80603 26.68 9.82096C27.1851 9.8587 27.6926 9.94007 28.1882 10.0621C28.7232 10.194 29.253 10.3758 29.7627 10.6026C29.9698 10.6948 30.0628 10.9371 29.9708 11.1441C29.903 11.2969 29.753 11.3878 29.596 11.3878Z" fill="#139CA4"/>
    <path d="M29.596 9.50842C29.5404 9.50842 29.4837 9.49694 29.4295 9.47282C28.9639 9.26561 28.4802 9.09974 27.9922 8.97948C27.5415 8.86825 27.0793 8.79442 26.6186 8.7598C26.3927 8.74274 26.2234 8.54587 26.2403 8.31995C26.2574 8.09404 26.4559 7.92571 26.6801 7.94162C27.1861 7.97969 27.6936 8.0609 28.1884 8.1828C28.7234 8.3147 29.2531 8.49648 29.7629 8.72322C29.9699 8.81542 30.063 9.05774 29.9709 9.26479C29.903 9.41753 29.753 9.50842 29.596 9.50842Z" fill="#3FC928"/>
    <path d="M32.6619 13.2671C32.5047 13.2671 32.3549 13.1762 32.2869 13.0236C32.1948 12.8166 32.2878 12.5743 32.4949 12.4821C33.0041 12.2555 33.5339 12.0737 34.0694 11.9415C34.5644 11.8196 35.0716 11.7385 35.5776 11.7003C35.805 11.6826 36.0004 11.8527 36.0175 12.0786C36.0345 12.3045 35.8651 12.5014 35.6391 12.5185C35.1785 12.5531 34.7165 12.6269 34.2656 12.7382C33.7772 12.8586 33.2935 13.0246 32.8283 13.2317C32.7743 13.2556 32.7175 13.2671 32.6619 13.2671Z" fill="#3FC928"/>
    <path d="M32.6619 11.3878C32.5047 11.3878 32.3549 11.2969 32.2869 11.1443C32.1948 10.9372 32.2878 10.6949 32.4949 10.6027C33.0045 10.376 33.5342 10.1942 34.0694 10.0623C34.5652 9.94024 35.0726 9.85903 35.5776 9.82113C35.8048 9.80554 36.0004 9.97371 36.0173 10.1996C36.0342 10.4255 35.8647 10.6222 35.639 10.6393C35.1793 10.6738 34.7173 10.7476 34.2656 10.859C33.7774 10.9791 33.2937 11.1451 32.8283 11.3523C32.7743 11.3763 32.7175 11.3878 32.6619 11.3878Z" fill="#139CA4"/>
    <path d="M32.6619 9.50843C32.5047 9.50843 32.3549 9.41754 32.2869 9.26496C32.1948 9.05791 32.2878 8.81559 32.4949 8.72339C33.0045 8.49665 33.5342 8.31487 34.0694 8.18297C34.5642 8.06107 35.0716 7.98002 35.5776 7.94179C35.805 7.92522 36.0004 8.09437 36.0175 8.32012C36.0345 8.54604 35.8651 8.74291 35.6391 8.75997C35.1785 8.79459 34.7165 8.86842 34.2656 8.97965C33.7774 9.09975 33.2937 9.26578 32.8283 9.47299C32.7743 9.49694 32.7175 9.50843 32.6619 9.50843Z" fill="#3FC928"/>
</svg>
