<svg width="240" height="240" viewBox="0 0 240 240" fill="none" xmlns="http://www.w3.org/2000/svg">
    <g clip-path="url(#clip0_216_2)">
        <rect width="240" height="240" fill="white"/>
        <path d="M74.9704 71.1023H23.3384C21.8248 71.1023 20.5984 69.8759 20.5984 68.3623C20.5984 66.8487 21.8248 65.6223 23.3384 65.6223H74.9693C76.4829 65.6223 77.7093 66.8487 77.7093 68.3623C77.7093 69.8759 76.4829 71.1023 74.9704 71.1023Z" fill="#139CA4"/>
        <path d="M74.9704 61.6579H23.3384C21.8248 61.6579 20.5984 60.4315 20.5984 58.9179C20.5984 57.4043 21.8248 56.1779 23.3384 56.1779H74.9693C76.4829 56.1779 77.7093 57.4043 77.7093 58.9179C77.7093 60.4315 76.4829 61.6579 74.9704 61.6579Z" fill="#3FC928"/>
        <path d="M44.7261 207.874C44.2943 207.874 43.8625 207.772 43.4657 207.567C42.5571 207.096 41.9861 206.158 41.9861 205.134V185.876C41.9861 184.852 42.5571 183.914 43.4657 183.443C44.3743 182.973 45.4692 183.047 46.3066 183.637L59.9486 193.265C60.6764 193.779 61.1093 194.613 61.1093 195.504C61.1093 196.395 60.6764 197.229 59.9497 197.742L46.3077 207.372C45.8353 207.704 45.2818 207.874 44.7261 207.874ZM47.4661 191.163V199.846L53.6169 195.504L47.4661 191.163Z" fill="#3FC928"/>
        <path d="M164.385 199.736C158.856 199.736 154.358 195.238 154.358 189.709C154.358 184.179 158.856 179.681 164.385 179.681C169.915 179.681 174.413 184.179 174.413 189.709C174.413 195.238 169.915 199.736 164.385 199.736ZM164.385 185.16C161.878 185.16 159.838 187.2 159.838 189.708C159.838 192.215 161.878 194.255 164.385 194.255C166.893 194.255 168.933 192.215 168.933 189.708C168.933 187.2 166.893 185.16 164.385 185.16Z" fill="#3FC928"/>
        <path d="M208.911 199.736C203.388 199.736 198.894 195.242 198.894 189.721C198.894 184.198 203.388 179.704 208.911 179.704C214.434 179.704 218.926 184.198 218.926 189.721C218.926 195.242 214.432 199.736 208.911 199.736ZM208.911 185.186C206.41 185.186 204.374 187.22 204.374 189.722C204.374 192.222 206.409 194.257 208.911 194.257C211.412 194.257 213.446 192.223 213.446 189.722C213.446 187.22 211.411 185.186 208.911 185.186Z" fill="#3FC928"/>
        <path d="M189.433 191.552H183.874C182.361 191.552 181.134 190.326 181.134 188.812C181.134 187.299 182.361 186.072 183.874 186.072H189.433C190.947 186.072 192.173 187.299 192.173 188.812C192.173 190.326 190.946 191.552 189.433 191.552Z" fill="#139CA4"/>
        <path d="M19.3435 49.1504V80.677C19.3435 82.1905 20.5699 83.417 22.0835 83.417H76.2253C77.7389 83.417 78.9654 82.1905 78.9654 80.677V49.5559C84.4323 46.7271 87.9888 41.007 87.9888 34.7708C87.9888 25.5895 80.5195 18.1202 71.3371 18.1202C68.767 18.1202 66.2911 18.6978 64.0333 19.8103C61.13 14.6426 55.6532 11.3524 49.5298 11.3524C43.4064 11.3524 37.9307 14.6426 35.0263 19.8103C32.7674 18.6978 30.2926 18.1202 27.7225 18.1202C18.5412 18.1202 11.0708 25.5895 11.0708 34.7708C11.0719 40.7265 14.2657 46.19 19.3435 49.1504ZM27.7236 23.5992C30.2247 23.5992 32.5954 24.4179 34.5802 25.9666C35.2882 26.52 36.221 26.6877 37.078 26.4236C37.9351 26.1573 38.6081 25.4876 38.8788 24.6327C40.354 19.9659 44.6339 16.8313 49.5309 16.8313C54.4279 16.8313 58.7078 19.9659 60.183 24.6327C60.4537 25.4876 61.1267 26.1573 61.9838 26.4236C62.8398 26.6866 63.7747 26.5189 64.4816 25.9666C66.4665 24.4179 68.8371 23.5992 71.3382 23.5992C77.4989 23.5992 82.5099 28.6101 82.5099 34.7697C82.5099 39.3882 79.5978 43.5859 75.263 45.2157C74.1944 45.6168 73.4864 46.6394 73.4864 47.7804V77.9369H24.8235V47.48C24.8235 46.3972 24.1857 45.4163 23.1971 44.9768C19.1605 43.1815 16.5519 39.1756 16.5519 34.7697C16.5519 28.6101 21.564 23.5992 27.7236 23.5992Z" fill="black"/>
        <path d="M143.355 142.722L140.848 135.545C142.024 133.974 143.013 132.282 143.802 130.494L151.277 129.144C153.942 128.662 155.885 126.346 155.897 123.64L155.928 116.683C155.94 113.972 154.018 111.639 151.357 111.136L143.895 109.719C143.121 107.921 142.148 106.223 140.988 104.64L143.558 97.4875C144.474 94.9382 143.44 92.0973 141.102 90.7339L135.092 87.2278C132.751 85.8599 129.77 86.3597 128.002 88.4136L123.041 94.171C121.1 93.9419 119.129 93.943 117.192 94.1447L112.283 88.3435C110.535 86.2764 107.559 85.7514 105.205 87.093L99.1627 90.5454C96.8117 91.8902 95.753 94.7212 96.6462 97.277L99.1528 104.454C97.9768 106.025 96.9882 107.716 96.1991 109.505L88.7243 110.854C86.0588 111.337 84.1166 113.652 84.1046 116.358L84.0728 123.316C84.0608 126.026 85.9832 128.36 88.6443 128.863L96.1059 130.28C96.8797 132.077 97.8529 133.776 99.0136 135.359L96.4435 142.511C95.5272 145.061 96.5608 147.902 98.8996 149.265L104.91 152.772C107.25 154.132 110.23 153.635 111.998 151.585L116.959 145.828C118.903 146.058 120.864 146.054 122.808 145.854L127.717 151.655C129.474 153.736 132.467 154.24 134.795 152.906L140.837 149.453C143.188 148.109 144.247 145.278 143.355 142.722ZM139.259 127.116C138.432 129.355 137.225 131.42 135.672 133.252C135.045 133.993 134.855 135.01 135.175 135.927L138.18 144.529C138.203 144.593 138.175 144.663 138.117 144.696L132.077 148.147C132.018 148.18 131.942 148.167 131.901 148.117L126.018 141.164C125.493 140.543 124.725 140.193 123.926 140.193C121.428 140.564 118.851 140.684 116.348 140.201C115.396 140.031 114.421 140.375 113.789 141.11L107.844 148.009C107.8 148.059 107.727 148.073 107.669 148.037L101.658 144.53C101.6 144.497 101.575 144.427 101.598 144.365L104.679 135.791C105.008 134.877 104.828 133.857 104.208 133.112C102.672 131.264 101.483 129.189 100.675 126.943C100.347 126.03 99.5605 125.359 98.6081 125.178L89.6625 123.479C89.5967 123.466 89.5496 123.409 89.5507 123.342L89.5825 116.384C89.5825 116.316 89.6307 116.259 89.6964 116.247L98.6541 114.629C99.6088 114.457 100.401 113.793 100.738 112.882C101.565 110.643 102.772 108.578 104.325 106.745C104.952 106.005 105.141 104.987 104.821 104.071L101.817 95.4686C101.794 95.4051 101.822 95.3349 101.88 95.302L107.92 91.8507C107.977 91.8156 108.052 91.8299 108.096 91.8803L113.979 98.8334C115.532 100.669 118.075 99.2268 120.092 99.4734C122.118 99.2466 124.636 100.708 126.208 98.8882L132.153 91.9888C132.196 91.9395 132.271 91.9252 132.328 91.9603L138.338 95.4675C138.397 95.5004 138.422 95.5706 138.399 95.633L135.318 104.207C134.989 105.121 135.169 106.14 135.789 106.886C137.325 108.734 138.514 110.808 139.322 113.055C139.649 113.968 140.436 114.639 141.389 114.82L150.334 116.519C150.4 116.532 150.447 116.589 150.446 116.656L150.414 123.614C150.414 123.682 150.366 123.739 150.3 123.751L141.343 125.369C140.388 125.542 139.596 126.205 139.259 127.116Z" fill="black"/>
        <path d="M120.071 103.974H119.998C111.195 103.974 104.014 111.115 103.973 119.928C103.953 124.208 105.603 128.241 108.617 131.281C111.631 134.321 115.648 136.007 119.928 136.025H120.001C128.804 136.025 135.985 128.884 136.026 120.072C136.046 115.792 134.396 111.758 131.382 108.718C128.369 105.678 124.352 103.993 120.071 103.974ZM120.001 130.545H119.953C117.136 130.533 114.493 129.425 112.51 127.423C110.526 125.423 109.442 122.769 109.454 119.952C109.481 114.152 114.205 109.454 120 109.454H120.048C122.865 109.466 125.509 110.574 127.491 112.576C129.475 114.576 130.559 117.23 130.547 120.047C130.521 125.847 125.795 130.545 120.001 130.545Z" fill="black"/>
        <path d="M120 80.0216C121.514 80.0216 122.74 78.7951 122.74 77.2815V2.74001C122.74 1.22643 121.514 0 120 0C118.486 0 117.26 1.22643 117.26 2.74001V77.2826C117.26 78.7951 118.486 80.0216 120 80.0216Z" fill="black"/>
        <path d="M120 159.977C118.486 159.977 117.26 161.204 117.26 162.717V237.26C117.26 238.774 118.486 240 120 240C121.514 240 122.74 238.774 122.74 237.26V162.717C122.74 161.204 121.514 159.977 120 159.977Z" fill="black"/>
        <path d="M237.26 117.259H166.006C164.493 117.259 163.266 118.486 163.266 119.999C163.266 121.513 164.493 122.739 166.006 122.739H237.26C238.774 122.739 240 121.513 240 119.999C240 118.486 238.774 117.259 237.26 117.259Z" fill="black"/>
        <path d="M76.7339 119.999C76.7339 118.486 75.5074 117.259 73.9939 117.259H2.74003C1.22644 117.259 0 118.486 0 119.999C0 121.513 1.22644 122.739 2.74003 122.739H73.9939C75.5074 122.739 76.7339 121.513 76.7339 119.999Z" fill="black"/>
        <path d="M94.7041 159.356H7.29288C5.77929 159.356 4.55286 160.582 4.55286 162.096C4.55286 163.61 5.77929 164.836 7.29288 164.836H94.7041C96.2177 164.836 97.4441 163.61 97.4441 162.096C97.4441 160.582 96.2177 159.356 94.7041 159.356Z" fill="black"/>
        <path d="M94.7041 226.114H8.20585C6.69226 226.114 5.46582 227.34 5.46582 228.854C5.46582 230.367 6.69226 231.594 8.20585 231.594H94.7041C96.2177 231.594 97.4441 230.367 97.4441 228.854C97.4441 227.34 96.2177 226.114 94.7041 226.114Z" fill="black"/>
        <path d="M73.985 217.192C75.4986 217.192 76.725 215.966 76.725 214.452V176.497C76.725 174.984 75.4986 173.757 73.985 173.757H28.0118C26.4982 173.757 25.2717 174.984 25.2717 176.497V214.452C25.2717 215.966 26.4982 217.192 28.0118 217.192H73.985ZM30.7518 179.237H71.245V211.712H30.7518V179.237Z" fill="black"/>
        <path d="M16.6725 217.192C18.1861 217.192 19.4126 215.966 19.4126 214.452V176.497C19.4126 174.984 18.1861 173.757 16.6725 173.757H7.29288C5.77929 173.757 4.55286 174.984 4.55286 176.497C4.55286 178.011 5.77929 179.237 7.29288 179.237H13.9325V211.712H7.29288C5.77929 211.712 4.55286 212.939 4.55286 214.452C4.55286 215.966 5.77929 217.192 7.29288 217.192H16.6725Z" fill="black"/>
        <path d="M94.704 179.237C96.2176 179.237 97.4441 178.011 97.4441 176.497C97.4441 174.984 96.2176 173.757 94.704 173.757H85.3244C83.8108 173.757 82.5844 174.984 82.5844 176.497V214.452C82.5844 215.966 83.8108 217.192 85.3244 217.192H94.704C96.2176 217.192 97.4441 215.966 97.4441 214.452C97.4441 212.939 96.2176 211.712 94.704 211.712H88.0644V179.237H94.704Z" fill="black"/>
        <path d="M229.457 189.637C229.467 189.379 229.473 189.118 229.473 188.858C229.473 177.614 220.325 168.467 209.083 168.467C204.38 168.467 199.857 170.079 196.23 173.027H189.395V162.888C189.395 161.375 188.169 160.148 186.655 160.148C185.141 160.148 183.915 161.375 183.915 162.888V173.027H177.08C173.452 170.079 168.93 168.467 164.227 168.467C152.983 168.467 143.836 177.615 143.836 188.858C143.836 189.119 143.84 189.381 143.851 189.641L139.876 216.681C138.993 222.686 142.473 228.604 148.151 230.752C149.67 231.325 151.235 231.601 152.779 231.601C157 231.601 161.059 229.539 163.542 225.862L174.764 209.249H198.546L209.768 225.862C213.161 230.885 219.49 232.893 225.159 230.752C230.837 228.604 234.317 222.687 233.434 216.681L229.457 189.637ZM223.22 225.625C219.939 226.869 216.272 225.701 214.308 222.794L202.271 204.975C201.761 204.221 200.911 203.768 200 203.768H173.308C172.397 203.768 171.546 204.22 171.037 204.975L158.999 222.794C157.034 225.701 153.369 226.869 150.088 225.625C146.8 224.382 144.785 220.956 145.296 217.477L149.277 190.404C149.329 190.165 149.35 189.917 149.337 189.666C149.322 189.399 149.315 189.129 149.315 188.858C149.315 180.636 156.004 173.947 164.226 173.947C167.931 173.947 171.483 175.315 174.227 177.799C174.731 178.255 175.387 178.507 176.066 178.507H197.241C197.921 178.507 198.576 178.255 199.08 177.799C201.825 175.315 205.377 173.947 209.081 173.947C217.303 173.947 223.992 180.637 223.992 188.858C223.992 189.129 223.985 189.399 223.97 189.666C223.957 189.917 223.977 190.164 224.03 190.401L228.011 217.477C228.523 220.956 226.508 224.382 223.22 225.625Z" fill="black"/>
        <path d="M147.418 79.3037C161.001 79.2851 174.227 82.2004 186.609 87.7725C187.313 88.0575 188.078 88.0608 188.78 87.7725C201.163 82.2004 214.388 79.2862 227.971 79.3048C229.485 79.3048 230.711 78.0784 230.711 76.5648V20.4361C230.737 18.9565 229.431 17.6468 227.941 17.6961C214.014 17.7126 200.435 20.5402 187.694 26.1386C175.055 20.5775 161.254 17.7049 147.447 17.6961C145.981 17.6556 144.639 18.9499 144.677 20.4361V76.5637C144.678 78.0773 145.904 79.3037 147.418 79.3037ZM225.232 73.8598C213.242 74.1821 201.561 76.6185 190.435 81.1187V30.9172C201.502 26.1452 213.195 23.5586 225.232 23.2222V73.8598ZM150.158 23.2211C162.108 23.5565 173.978 26.1803 184.955 30.9161V81.1198C173.829 76.6196 162.148 74.1821 150.158 73.8598V23.2211Z" fill="black"/>
        <path d="M177.425 68.3403C177.054 68.3403 176.675 68.2636 176.313 68.1025C173.204 66.7193 169.973 65.6102 166.71 64.8057C163.7 64.0626 160.613 63.5694 157.535 63.3381C156.026 63.2242 154.895 61.909 155.008 60.3998C155.122 58.8895 156.452 57.754 157.946 57.8724C161.326 58.1266 164.716 58.6692 168.022 59.4835C171.598 60.3658 175.137 61.5802 178.54 63.0948C179.923 63.7108 180.545 65.3296 179.93 66.7127C179.476 67.7342 178.474 68.3403 177.425 68.3403Z" fill="#3FC928"/>
        <path d="M177.425 55.7856C177.054 55.7856 176.675 55.7089 176.313 55.5478C173.203 54.1635 169.971 53.0554 166.711 52.2521C163.695 51.5079 160.607 51.0147 157.535 50.7845C156.027 50.6705 154.895 49.3564 155.008 47.8472C155.122 46.338 156.424 45.219 157.945 45.3187C161.32 45.5708 164.71 46.1144 168.021 46.9299C171.595 47.8111 175.134 49.0254 178.539 50.5401C179.922 51.1561 180.544 52.7749 179.929 54.158C179.476 55.1784 178.474 55.7856 177.425 55.7856Z" fill="#139CA4"/>
        <path d="M177.425 43.2308C177.054 43.2308 176.675 43.1541 176.313 42.993C173.203 41.6087 169.971 40.5007 166.711 39.6973C163.7 38.9542 160.613 38.461 157.535 38.2298C156.026 38.1158 154.895 36.8006 155.008 35.2914C155.122 33.7822 156.448 32.6577 157.946 32.764C161.326 33.0182 164.716 33.5608 168.022 34.3751C171.596 35.2563 175.135 36.4707 178.54 37.9853C179.923 38.6013 180.545 40.2201 179.93 41.6033C179.476 42.6236 178.474 43.2308 177.425 43.2308Z" fill="#3FC928"/>
        <path d="M197.907 68.3404C196.857 68.3404 195.856 67.7332 195.401 66.7139C194.786 65.3307 195.408 63.7119 196.791 63.096C200.193 61.5824 203.732 60.368 207.309 59.4846C210.616 58.6703 214.005 58.1289 217.385 57.8735C218.904 57.7552 220.209 58.8917 220.323 60.4009C220.437 61.9101 219.305 63.2253 217.796 63.3393C214.718 63.5706 211.632 64.0638 208.62 64.8068C205.357 65.6113 202.126 66.7205 199.018 68.1036C198.657 68.2637 198.278 68.3404 197.907 68.3404Z" fill="#3FC928"/>
        <path d="M197.907 55.7856C196.857 55.7856 195.856 55.1784 195.401 54.1591C194.786 52.7759 195.408 51.1571 196.791 50.5412C200.195 49.0265 203.734 47.8121 207.309 46.9309C210.621 46.1155 214.011 45.573 217.385 45.3198C218.903 45.2157 220.209 46.3391 220.322 47.8483C220.435 49.3575 219.303 50.6716 217.795 50.7856C214.724 51.0157 211.637 51.5089 208.62 52.2531C205.358 53.0554 202.127 54.1646 199.018 55.5488C198.657 55.7088 198.278 55.7856 197.907 55.7856Z" fill="#139CA4"/>
        <path d="M197.907 43.2308C196.857 43.2308 195.856 42.6236 195.401 41.6043C194.786 40.2212 195.408 38.6024 196.791 37.9864C200.195 36.4717 203.734 35.2574 207.309 34.3762C210.615 33.5618 214.005 33.0204 217.385 32.7651C218.904 32.6544 220.209 33.7843 220.323 35.2924C220.437 36.8016 219.305 38.1168 217.796 38.2308C214.718 38.4621 211.632 38.9553 208.62 39.6984C205.358 40.5007 202.127 41.6098 199.018 42.9941C198.657 43.1541 198.278 43.2308 197.907 43.2308Z" fill="#3FC928"/>
    </g>
    <defs>
        <clipPath id="clip0_216_2">
            <rect width="240" height="240" fill="white"/>
        </clipPath>
    </defs>
</svg>
