<svg width="54" height="54" viewBox="0 0 54 54" fill="none" xmlns="http://www.w3.org/2000/svg">
    <path d="M21.5001 5C12.4019 5 5 12.4019 5 21.5002C5 30.5984 12.4019 38 21.5001 38C30.5983 38 38 30.5984 38 21.5002C38 12.4019 30.5983 5 21.5001 5ZM21.5001 36.6195C13.163 36.6195 6.38026 29.837 6.38026 21.5002C6.38026 13.1634 13.1628 6.38087 21.5001 6.38087C29.8375 6.38087 36.6197 13.1634 36.6197 21.5002C36.6197 29.837 29.837 36.6191 21.5001 36.6191V36.6195Z"
          fill="url(#paint0_linear_133_2)"/>
    <path d="M42.108 36.0102C41.9809 35.8832 41.8085 35.8118 41.6288 35.8118C41.4491 35.8118 41.2767 35.8832 41.1496 36.0102L40.6395 36.5202L38.6458 34.5279C41.5037 30.7908 43.05 26.2159 43.0454 21.5114C43.0454 9.64967 33.3904 0 21.5229 0C9.65543 0 0 9.64967 0 21.5114C0 33.3732 9.65498 43.0229 21.5229 43.0229C26.2296 43.0277 30.8068 41.4821 34.5469 38.6251L36.5405 40.6174L36.0066 41.151C35.9437 41.2139 35.8937 41.2887 35.8596 41.3709C35.8255 41.4532 35.808 41.5413 35.808 41.6303C35.808 41.7194 35.8255 41.8075 35.8596 41.8897C35.8937 41.972 35.9437 42.0467 36.0066 42.1096L46.6429 52.7404C47.4516 53.5476 48.5477 54.0006 49.6903 54C50.8329 53.9994 51.9285 53.5452 52.7364 52.7373C52.7925 52.6822 52.847 52.6255 52.9 52.5672C54.4279 50.8848 54.3544 48.223 52.7403 46.6371L42.108 36.0102ZM1.35556 21.5114C1.35556 10.3974 10.4025 1.35545 21.5229 1.35545C32.6434 1.35545 41.69 10.3974 41.69 21.5114C41.69 32.6255 32.6428 41.6674 21.5229 41.6674C10.403 41.6674 1.35556 32.6256 1.35556 21.5114ZM35.605 37.7664C36.383 37.0922 37.1121 36.3634 37.7867 35.5858L39.6806 37.4784L37.499 39.6591L35.605 37.7664ZM51.8959 51.6562C51.8604 51.6955 51.8234 51.7338 51.7823 51.7742C51.2273 52.3288 50.475 52.6406 49.6905 52.6413C48.9059 52.642 48.1531 52.3315 47.5971 51.778L37.4442 41.6303L41.6288 37.4477L51.7858 47.6002C52.3187 48.1344 52.6269 48.8521 52.6474 49.6063C52.6679 50.3605 52.399 51.0939 51.8959 51.6562Z"
          fill="url(#paint1_linear_133_2)"/>
    <path d="M29.2599 12H15.6381C14.2143 12 13 13.1023 13 14.5011V29.4053C13 29.4147 13.0283 29.424 13.0288 29.4333C13.0288 29.4493 13.0423 29.4561 13.0423 29.4723C13.0467 30.1453 13.3223 30.7893 13.8089 31.263C14.2954 31.7367 14.9533 32.0017 15.6382 31.9998H28.2528C28.3436 32.0021 28.4339 31.9867 28.5186 31.9546C28.6033 31.9225 28.6807 31.8742 28.7464 31.8126C28.812 31.7509 28.8646 31.6772 28.9012 31.5955C28.9377 31.5138 28.9574 31.4258 28.9592 31.3366V28.3635H29.2599C29.4543 28.3528 29.6378 28.2715 29.7746 28.1353C29.9114 27.9991 29.9917 27.8177 30 27.6265V12.646C30 12.2695 29.6431 12 29.2599 12ZM14.3878 14.5011C14.3878 13.8542 14.9797 13.3636 15.6381 13.3636H17.0476V26.9998H15.6382C15.2094 26.9906 14.7834 27.0699 14.3878 27.2328V14.5011ZM27.5714 30.6362H15.6382C15.4833 30.641 15.3289 30.6151 15.1844 30.5602C15.0398 30.5053 14.9079 30.4223 14.7965 30.3163C14.6852 30.2103 14.5967 30.0834 14.5362 29.9432C14.4758 29.8029 14.4446 29.6521 14.4446 29.4998C14.4446 29.3475 14.4758 29.1967 14.5362 29.0564C14.5967 28.9162 14.6852 28.7893 14.7965 28.6833C14.9079 28.5773 15.0398 28.4943 15.1844 28.4394C15.3289 28.3845 15.4833 28.3586 15.6382 28.3635H27.5714V30.6362ZM28.6122 26.9998H18.4354V13.3636H28.6122V26.9998Z"
          fill="url(#paint2_linear_133_2)"/>
    <defs>
        <linearGradient id="paint0_linear_133_2" x1="21.4999" y1="0.62125" x2="21.4999" y2="53.5734"
                        gradientUnits="userSpaceOnUse">
            <stop stop-color="#3FC928"/>
            <stop offset="1" stop-color="#139CA4"/>
        </linearGradient>
        <linearGradient id="paint1_linear_133_2" x1="26.9998" y1="1.01693" x2="26.9998" y2="52.9941"
                        gradientUnits="userSpaceOnUse">
            <stop stop-color="#3FC928"/>
            <stop offset="1" stop-color="#139CA4"/>
        </linearGradient>
        <linearGradient id="paint2_linear_133_2" x1="21.5" y1="0.974329" x2="21.5" y2="53.2649"
                        gradientUnits="userSpaceOnUse">
            <stop stop-color="#3FC928"/>
            <stop offset="1" stop-color="#139CA4"/>
        </linearGradient>
    </defs>
</svg>
